<?xml version="1.0" encoding="UTF-8"?>
<svg version="1.1" xmlns="http://www.w3.org/2000/svg" width="2000" height="2000">
<path d="M0 0 C660 0 1320 0 2000 0 C2000 660 2000 1320 2000 2000 C1340 2000 680 2000 0 2000 C0 1340 0 680 0 0 Z " fill="#FEFEFE" transform="translate(0,0)"/>
<path d="M0 0 C0.72993736 -0.00030304 1.45987472 -0.00060609 2.21193139 -0.00091831 C54.17710518 -0.0154662 106.13880627 1.1213333 158.09394363 2.04777197 C169.86271673 2.25762028 181.63154129 2.46430125 193.40041924 2.66818428 C194.1922453 2.68190262 194.98407136 2.69562097 195.79989216 2.70975502 C199.82584096 2.77948756 203.85179068 2.84916721 207.87774079 2.91882402 C236.18518065 3.40866719 264.49252302 3.90393677 292.79980469 4.40283203 C320.04456238 4.88297704 347.28934608 5.36158283 374.53417969 5.83740234 C375.3733824 5.85205984 376.21258511 5.86671734 377.0772182 5.881819 C396.34599803 6.21835595 415.61478838 6.55428686 434.88358974 6.88958836 C436.53133901 6.91826307 438.17908828 6.94693781 439.82683755 6.97561257 C449.62445429 7.1461084 449.62445429 7.1461084 459.42207234 7.31652874 C476.78211071 7.61843556 494.14213094 7.92131089 511.50209236 8.22761345 C529.0946276 8.53801044 546.68718007 8.8473926 564.27978516 9.15380859 C564.97038269 9.16583891 565.66098023 9.17786923 566.37250496 9.1902641 C608.63560265 9.92614081 650.89862734 10.57277394 693.16547233 11.04882687 C706.56868849 11.2021134 719.9709424 11.40718525 733.37329102 11.62280273 C734.40491265 11.63883045 735.43653429 11.65485817 736.49941719 11.67137158 C737.48543234 11.68689851 738.47144748 11.70242544 739.48734188 11.71842289 C740.35383828 11.73191967 741.22033468 11.74541645 742.11308855 11.75932223 C749.75684827 11.90356482 757.33986487 12.31495972 764.94750977 13.07983398 C765.70477356 13.15407089 766.46203735 13.2283078 767.24224854 13.30479431 C780.77052434 14.81000446 794.56187405 19.98181798 804.02563477 30.07202148 C812.61999701 41.44011433 814.67688913 53.26959779 813.62329102 67.18530273 C810.57513407 85.86293554 800.73080468 103.11907215 792.26809692 119.80551147 C781.437701 141.20303527 772.75432985 163.4185635 764.62133789 185.96264648 C758.20911806 203.7332915 750.83724035 220.58072275 738.62329102 235.18530273 C737.94008789 236.03092773 737.25688477 236.87655273 736.55297852 237.74780273 C726.38661027 249.7523704 713.54129145 258.13342058 699.62329102 265.18530273 C698.54047852 265.73959961 697.45766602 266.29389648 696.34204102 266.86499023 C689.11616434 270.24992761 681.7042063 272.42727659 673.99829102 274.43530273 C673.0759668 274.68175537 672.15364258 274.92820801 671.20336914 275.18212891 C656.17130757 278.8825845 640.60387459 279.45538855 625.18895912 279.42702484 C623.60818575 279.4244585 623.60818575 279.4244585 621.99547756 279.42184031 C620.90585912 279.4198376 619.81624069 279.41783489 618.69360352 279.41577148 C616.56170029 279.41293465 614.42979695 279.41017837 612.29789352 279.40749931 C570.90812094 279.34942823 529.51892118 279.26961806 488.13012695 278.96801758 C487.4329751 278.96294823 486.73582325 278.95787888 486.01754558 278.95265591 C479.52833341 278.90539222 473.03912631 278.8574524 466.5499227 278.80902755 C406.61903256 278.36217985 346.68836061 278.05408829 286.75610352 277.86889648 C285.87904332 277.86618007 285.00198312 277.86346366 284.09834534 277.86066493 C262.01609968 277.79237883 239.93384076 277.72912422 217.85157454 277.66789383 C205.07755947 277.63242281 192.30354923 277.59547276 179.52954102 277.55761719 C178.61012396 277.55489292 177.6907069 277.55216864 176.74342872 277.54936182 C172.12413696 277.53566746 167.50484526 277.52195015 162.8855536 277.50822151 C125.46480929 277.39703506 88.04405482 277.28971394 50.62329102 277.18530273 C50.55770587 278.00542973 50.49212072 278.82555672 50.42454815 279.67053604 C50.29303215 281.28735086 50.29303215 281.28735086 50.15885925 282.93682861 C50.07264911 284.0044556 49.98643896 285.0720826 49.89761639 286.17206192 C49.57413314 289.72526198 49.05473478 293.15790649 48.42407227 296.66967773 C48.30885223 297.31964218 48.1936322 297.96960663 48.07492065 298.63926697 C47.70100471 300.73903373 47.31888879 302.8371933 46.93579102 304.93530273 C46.66447142 306.43892117 46.393399 307.94258423 46.12255859 309.44628906 C45.56565203 312.53071826 45.00458066 315.61435309 44.44067383 318.69750977 C43.91975735 321.54880588 43.40519855 324.40106483 42.8996582 327.25512695 C39.04047425 349.02649215 34.2560971 370.51811469 29.13751221 392.02416992 C28.65667078 394.04501661 28.17747128 396.06624351 27.69897461 398.08764648 C25.43206638 407.65292535 23.12289587 417.20573405 20.72875977 426.73999023 C19.27796474 432.52007002 17.86335701 438.30792118 16.47485352 444.10327148 C9.51224045 473.12806077 9.51224045 473.12806077 5.64892578 486.19848633 C4.00646685 491.76558172 2.55496401 497.35758606 1.18579102 502.99780273 C-0.85079504 511.3544018 -3.2043722 519.59335099 -5.64990234 527.83862305 C-7.8470764 535.27812541 -9.89072484 542.74940383 -11.87670898 550.24780273 C-14.57147443 560.38890778 -17.52223354 570.42624045 -20.61889648 580.45092773 C-22.47508819 586.46955157 -24.24542209 592.51187792 -26.00170898 598.56030273 C-26.44148071 600.07406494 -26.44148071 600.07406494 -26.89013672 601.6184082 C-27.45769682 603.57324849 -28.025007 605.52816135 -28.59204102 607.4831543 C-32.1957879 619.89331937 -35.89300232 632.27500902 -39.61499023 644.65014648 C-40.36012993 647.13012425 -41.10319197 649.61071379 -41.84545898 652.09155273 C-46.50679622 667.66712696 -51.17675422 683.24145095 -56.06420898 698.74780273 C-58.29915759 705.85967563 -60.35941178 713.00940554 -62.37670898 720.18530273 C-61.13833094 720.18122689 -59.89995289 720.17715105 -58.62404823 720.1729517 C-44.89656871 720.14209506 -31.17765855 720.30472443 -17.45239258 720.53662109 C-15.13079573 720.5745588 -12.80919632 720.61233985 -10.4875946 720.64997864 C-5.51821644 720.73085329 -0.54885705 720.81277312 4.42049026 720.89552116 C11.69522892 721.01660693 18.97000205 721.13551972 26.24478666 721.25380487 C38.1740343 721.44779732 50.10326098 721.64304599 62.0324707 721.83935547 C62.74348648 721.85105562 63.45450226 721.86275577 64.18706398 721.87481046 C70.6234719 721.98073693 77.05987844 722.08674708 83.49628448 722.19278717 C103.57895134 722.52364408 123.66163871 722.85319492 143.74438101 723.17944357 C145.7895207 723.21268171 147.83465963 723.24596646 149.87979841 723.27926087 C184.61125248 723.84445128 219.34255423 724.3628046 254.07641602 724.75561523 C254.91866793 724.76514347 255.76091984 724.77467171 256.62869453 724.78448868 C258.30011359 724.8033931 259.97153266 724.82229711 261.64295173 724.84120071 C285.90288261 725.11600246 310.15965003 725.45969439 334.4152832 726.00537109 C339.06737411 726.10960667 343.71964792 726.20100626 348.3720417 726.29054928 C352.10053607 726.36426081 355.82882142 726.44602095 359.55709457 726.53012276 C361.28006769 726.56771483 363.00310573 726.60246774 364.7262001 726.63401604 C389.93522199 727.10378748 389.93522199 727.10378748 399.60375977 736.00952148 C411.48702617 748.90628609 411.3806385 763.29204982 410.80981445 779.99926758 C410.02908078 793.33509805 405.19337245 805.82686906 400.90844727 818.36108398 C394.4713198 837.35611785 388.73535734 856.63932385 384.10717773 876.15356445 C376.2402557 909.18511094 366.3289716 945.77560187 336.06079102 965.24780273 C325.71428507 971.26874034 314.77848352 974.33289487 302.86157227 974.35327148 C302.09937881 974.35741562 301.33718536 974.36155975 300.55189514 974.36582947 C298.01314626 974.37562191 295.47455624 974.37545323 292.93579102 974.37280273 C292.04925842 974.37286316 291.16272583 974.37292358 290.24932861 974.37298584 C258.13772385 974.34238913 226.04724205 972.63212664 193.98779297 970.93359375 C182.38927354 970.31932158 170.78919594 969.76169178 159.18579102 969.24780273 C158.2919873 969.20816406 157.39818359 969.16852539 156.47729492 969.12768555 C143.36159539 968.54847253 130.24457816 968.00211899 117.12719727 967.46264648 C115.57511872 967.39876526 114.02304047 967.33487667 112.47096252 967.27098083 C111.69604556 967.23908063 110.9211286 967.20718042 110.1227293 967.17431355 C106.95858677 967.04404243 103.79444599 966.91372892 100.63030624 966.78339005 C99.0431931 966.71803544 97.45607813 966.65272523 95.86896133 966.58745956 C75.85848509 965.7644116 55.85330164 964.89649962 35.85473633 963.81640625 C25.48215206 963.25897849 15.11110248 962.83200307 4.7277832 962.52661133 C-0.20610757 962.37413768 -5.10682208 962.14422459 -10.02514648 961.72045898 C-32.7166979 959.93121481 -55.47890156 960.02508455 -78.22387695 960.05493164 C-82.66825942 960.06070839 -87.11258252 960.05728194 -91.55696297 960.05135918 C-95.02461189 960.0477408 -98.49224674 960.04889666 -101.95989609 960.05148697 C-103.60002525 960.05214857 -105.24015574 960.05135499 -106.88028336 960.04900742 C-109.16053924 960.04645079 -111.44069854 960.05036 -113.72094727 960.0559082 C-115.01042267 960.0567038 -116.29989807 960.05749939 -117.62844849 960.05831909 C-121.61452456 960.19335945 -125.42917582 960.63388032 -129.37670898 961.18530273 C-129.5270459 961.77206787 -129.67738281 962.35883301 -129.83227539 962.96337891 C-132.48892085 973.30582217 -135.17823571 983.627319 -138.18920898 993.87280273 C-141.47699486 1005.11856274 -144.25375586 1016.49200942 -147.04199219 1027.86962891 C-148.82022548 1035.10386995 -150.66392118 1042.30619077 -152.69311523 1049.47436523 C-156.14467307 1061.7085106 -159.1808803 1074.05093752 -162.2557373 1086.38396454 C-162.75754395 1088.39620084 -163.26017985 1090.40822866 -163.76293945 1092.42022705 C-168.28160928 1110.51331613 -172.64947445 1128.62370817 -176.63500977 1146.8425293 C-177.97584722 1152.88556628 -179.39905216 1158.90932193 -180.81420898 1164.93530273 C-181.39913669 1167.4378386 -181.98376956 1169.9404434 -182.56811523 1172.44311523 C-183.48298769 1176.36114512 -184.39850195 1180.27901073 -185.31762695 1184.19604492 C-189.96090948 1204.00669239 -194.2375042 1223.87230755 -198.23168945 1243.82446289 C-200.01962377 1252.72936361 -201.90657319 1261.58839834 -204.03034973 1270.41946411 C-205.35672117 1275.97898833 -206.40695922 1281.54459895 -207.31420898 1287.18530273 C-208.61493306 1294.94650436 -210.04493406 1302.66416101 -211.62670898 1310.37280273 C-219.55265876 1349.30993205 -227.39524357 1388.79261974 -231.77124023 1428.30249023 C-232.15647168 1431.66180217 -232.67831424 1434.96061194 -233.30639648 1438.28295898 C-234.70508837 1445.73221589 -235.68576405 1453.23748593 -236.68920898 1460.74780273 C-236.79586884 1461.54330536 -236.90252869 1462.33880798 -237.01242065 1463.15841675 C-241.64006365 1497.76222448 -245.48277193 1532.39259148 -248.37670898 1567.18530273 C-248.48755829 1568.51800201 -248.48755829 1568.51800201 -248.60064697 1569.87762451 C-249.10226331 1575.9374535 -249.58800959 1581.99842737 -250.06420898 1588.06030273 C-250.15548065 1589.2073317 -250.15548065 1589.2073317 -250.24859619 1590.37753296 C-251.63945306 1607.98380969 -252.40058042 1625.56710258 -252.58764648 1643.22827148 C-252.60203262 1644.54136292 -252.61641876 1645.85445435 -252.63124084 1647.20733643 C-252.68888224 1652.62857052 -252.74464735 1658.0497465 -252.77807617 1663.47119141 C-253.02637832 1701.64126674 -253.02637832 1701.64126674 -259.06420898 1718.43530273 C-259.31912109 1719.16579834 -259.5740332 1719.89629395 -259.83666992 1720.64892578 C-271.45748446 1752.65475937 -297.22279562 1774.852821 -327.37670898 1789.18530273 C-334.11493573 1792.13539463 -340.97694447 1794.74413881 -347.8840332 1797.26879883 C-349.96550412 1798.03411145 -352.0342055 1798.83403957 -354.09936523 1799.64233398 C-383.55609982 1810.91678282 -415.84947785 1814.9130227 -447.05895996 1817.95812988 C-449.35385509 1818.18306272 -451.64798682 1818.41484007 -453.94213867 1818.6472168 C-474.17987414 1820.6667197 -494.35241657 1821.50153632 -514.68920898 1821.62280273 C-515.74230255 1821.63492798 -516.79539612 1821.64705322 -517.88040161 1821.6595459 C-540.15292395 1821.87843618 -561.42880881 1819.53145186 -578.31811523 1803.50854492 C-598.22199729 1783.51001125 -600.80066842 1753.19500611 -603.43920898 1726.56030273 C-603.56569321 1725.30704697 -603.56569321 1725.30704697 -603.69473267 1724.0284729 C-605.2869596 1708.18882181 -606.52568653 1692.33954973 -607.27011108 1676.43563843 C-607.34451065 1674.86502582 -607.42244747 1673.29457852 -607.50308228 1671.72427368 C-608.66799935 1648.66440873 -608.66425565 1625.58137122 -608.68920898 1602.49780273 C-608.69065414 1601.44664024 -608.6920993 1600.39547775 -608.69358826 1599.31246185 C-608.73012478 1566.35973144 -607.94470754 1533.80415182 -604.65203857 1500.99462891 C-604.2867237 1497.26713767 -603.95951809 1493.53676962 -603.63424683 1489.80560303 C-601.79468407 1468.70783025 -599.25606692 1447.74342403 -596.29385376 1426.77610779 C-595.57363414 1421.65773049 -594.89329407 1416.53529262 -594.23999023 1411.40795898 C-594.15010834 1410.70272095 -594.06022644 1409.99748291 -593.96762085 1409.27087402 C-593.54864301 1405.97370684 -593.13329324 1402.67611745 -592.72045898 1399.37817383 C-591.92895786 1393.13994048 -591.04066038 1386.93777743 -589.97753906 1380.74023438 C-589.20325838 1376.15904745 -588.47720929 1371.57068858 -587.74780273 1366.98217773 C-581.93051139 1330.57248635 -575.63226414 1294.24611787 -567.69311523 1258.23217773 C-566.3956899 1252.33700724 -565.22199402 1246.42170535 -564.06420898 1240.49780273 C-556.65329529 1202.91432002 -547.87723313 1165.55473011 -538.86181641 1128.32739258 C-537.67828065 1123.43817163 -536.50388389 1118.54682732 -535.33322144 1113.6545105 C-532.12523813 1100.25295065 -528.87116641 1086.86296838 -525.58959961 1073.47924805 C-524.74366342 1070.02747346 -523.90002078 1066.57514298 -523.05639648 1063.12280273 C-520.27865516 1051.77655606 -517.4455731 1040.4567069 -514.37670898 1029.18530273 C-513.74674937 1026.82490653 -513.11784216 1024.4642292 -512.48999023 1022.10327148 C-511.8898997 1019.85973646 -511.28964086 1017.61624644 -510.68920898 1015.37280273 C-510.22804688 1013.63933594 -510.22804688 1013.63933594 -509.75756836 1011.87084961 C-509.46301758 1010.77192383 -509.1684668 1009.67299805 -508.86499023 1008.54077148 C-508.60242432 1007.5574585 -508.3398584 1006.57414551 -508.06933594 1005.56103516 C-507.37670898 1003.18530273 -507.37670898 1003.18530273 -506.37670898 1001.18530273 C-506.91440918 1001.30429932 -507.45210937 1001.4232959 -508.00610352 1001.54589844 C-516.03029027 1003.24183362 -524.12214981 1004.33306271 -532.25170898 1005.37280273 C-533.45988785 1005.52795853 -533.45988785 1005.52795853 -534.69247437 1005.68624878 C-590.72858286 1012.82167452 -647.72762166 1019.59245294 -704.24346924 1020.16314697 C-706.56447239 1020.18725284 -708.88536555 1020.21724981 -711.20629883 1020.24731445 C-715.4378121 1020.29926244 -719.6692062 1020.33494322 -723.90097046 1020.35852051 C-725.52682156 1020.36789984 -727.15266053 1020.37978325 -728.7784729 1020.39440918 C-741.04175259 1020.49126463 -751.52357267 1020.4643903 -761.37670898 1012.18530273 C-767.78890824 1003.76929122 -766.4225825 989.92986855 -765.07641602 979.96166992 C-764.23503785 975.56506707 -762.89070909 971.39033124 -761.37670898 967.18530273 C-760.97581055 966.06381836 -760.57491211 964.94233398 -760.16186523 963.78686523 C-748.69270086 934.73164881 -725.12282446 908.96075628 -701.37670898 889.18530273 C-700.85044922 888.73993164 -700.32418945 888.29456055 -699.78198242 887.83569336 C-689.13779574 878.84830253 -678.00867862 870.84067316 -666.37670898 863.18530273 C-665.63646484 862.6920752 -664.8962207 862.19884766 -664.13354492 861.69067383 C-603.95753286 821.72899841 -531.69754354 797.27722727 -462.38061523 778.55249023 C-461.54908936 778.30499023 -460.71756348 778.05749023 -459.86083984 777.80249023 C-457.37670898 777.18530273 -457.37670898 777.18530273 -454.72265625 777.03686523 C-451.48344811 776.66974089 -449.94535504 776.23652971 -447.37670898 774.18530273 C-444.05870411 768.15716517 -442.80568771 761.06166095 -441.18920898 754.43530273 C-440.68375395 752.49964016 -440.17381055 750.56514416 -439.65942383 748.63183594 C-438.65500123 744.84418569 -437.66905136 741.05256426 -436.69848633 737.25610352 C-435.14682005 731.2353158 -433.37372434 725.30201121 -431.50170898 719.37280273 C-429.31918198 712.33624735 -427.24744405 705.27708569 -425.25170898 698.18530273 C-423.59328762 692.29850265 -421.85230839 686.47368316 -419.87670898 680.68530273 C-417.94343186 675.02006661 -416.24294384 669.32352775 -414.62670898 663.56030273 C-409.39820981 644.99414622 -403.76641515 626.52427372 -397.20336914 608.38305664 C-395.30919431 603.09510932 -393.65321472 597.76414902 -392.1003418 592.3671875 C-389.57677311 583.70238457 -386.77244643 575.14966066 -383.87670898 566.60327148 C-383.35431363 565.05477316 -382.83210171 563.50621294 -382.31005859 561.95759583 C-381.21971359 558.7257077 -380.12696882 555.49464407 -379.0324707 552.26416016 C-377.67106448 548.24518493 -376.31598542 544.22411134 -374.96267509 540.20240402 C-367.84474807 519.06194631 -360.44852976 498.03534647 -352.79829407 477.08175659 C-351.39597174 473.24080165 -350.00168275 469.39697731 -348.60839844 465.55273438 C-327.70531774 407.9202805 -305.15405793 350.88609194 -281.06188965 294.51441956 C-278.75352223 289.10267083 -276.50665821 283.67018869 -274.37670898 278.18530273 C-284.8421217 278.01573083 -295.1416175 278.4694502 -305.56420898 279.43530273 C-306.65980133 279.53417282 -306.65980133 279.53417282 -307.77752686 279.63504028 C-321.32555226 280.86552883 -334.77544162 282.57716156 -348.21557617 284.69116211 C-351.15489946 285.15063001 -354.09683407 285.58472914 -357.04077148 286.01342773 C-382.69311258 289.88085225 -408.69781703 295.47654296 -433.36743164 303.54418945 C-436.04563067 304.39873996 -438.74742439 305.1563726 -441.45336914 305.91748047 C-462.31120969 311.82678762 -482.51803952 319.53279556 -502.37670898 328.18530273 C-503.24489258 328.56154785 -504.11307617 328.93779297 -505.00756836 329.32543945 C-526.94376653 338.87299688 -547.89152336 349.8317448 -568.37670898 362.18530273 C-569.34157227 362.76666992 -570.30643555 363.34803711 -571.30053711 363.94702148 C-581.28899282 369.99034275 -591.0656839 376.13074445 -600.37670898 383.18530273 C-601.88416804 384.29302797 -603.39346399 385.39825548 -604.90405273 386.50170898 C-613.20078687 392.56552105 -621.43877567 398.65514001 -629.37670898 405.18530273 C-630.63533114 406.19633273 -631.89449705 407.20668599 -633.15405273 408.21655273 C-642.94732263 416.11625987 -652.18329795 424.45806849 -661.26049805 433.16625977 C-663.34533359 435.15536797 -665.44689789 437.12473682 -667.55639648 439.08764648 C-676.14980165 447.09047401 -684.54357816 455.25941922 -692.7824707 463.62792969 C-696.93793997 467.83065088 -701.17752715 471.83839406 -705.65966797 475.69091797 C-707.66293185 477.43440982 -709.53242558 479.27515207 -711.37670898 481.18530273 C-714.49585134 484.34064404 -717.69409859 487.32800088 -721.06811523 490.20874023 C-722.82444658 491.71246893 -724.55735984 493.24359812 -726.27905273 494.78686523 C-737.98830498 505.17299728 -753.35346715 516.50808844 -769.81030273 515.68920898 C-782.97064199 513.10521543 -791.38927157 503.49881429 -798.56420898 492.93530273 C-802.89461955 486.32138993 -806.45287115 479.54318895 -809.37670898 472.18530273 C-809.8162793 471.08444336 -810.25584961 469.98358398 -810.70874023 468.84936523 C-812.11663236 464.99573905 -813.30868886 461.14457399 -814.37670898 457.18530273 C-814.57570801 456.4534375 -814.77470703 455.72157227 -814.97973633 454.9675293 C-829.46193577 398.201103 -812.57503147 332.13661697 -783.50268555 282.85620117 C-767.53764457 256.44419939 -747.11453205 230.57613255 -723.78686523 210.28295898 C-721.17940263 208.01357905 -718.65773294 205.66448659 -716.12670898 203.31030273 C-710.40066399 198.10553634 -704.39427794 193.34796332 -698.26000977 188.64038086 C-696.37845382 187.18665083 -694.51526204 185.7118367 -692.65405273 184.23217773 C-673.72134475 169.30642978 -653.24611671 156.21764545 -632.37670898 144.18530273 C-631.05509766 143.41452393 -631.05509766 143.41452393 -629.70678711 142.62817383 C-599.38547743 124.99393846 -567.69831407 109.77147623 -535.37670898 96.18530273 C-534.74992249 95.92164917 -534.12313599 95.65799561 -533.47735596 95.38635254 C-501.43556356 81.94631741 -468.55737212 70.46787905 -435.37670898 60.18530273 C-434.52044922 59.91927246 -433.66418945 59.65324219 -432.78198242 59.37915039 C-423.31429332 56.45964319 -413.75053392 53.94783799 -404.1550293 51.48510742 C-398.62473006 50.05928447 -393.13161256 48.55099423 -387.65478516 46.93237305 C-376.44830251 43.62075191 -365.13941042 41.03274237 -353.71655273 38.57983398 C-349.61305921 37.69572644 -345.5434364 36.73501062 -341.47827148 35.68920898 C-334.64153114 33.955533 -327.74202164 32.62446258 -320.81420898 31.31030273 C-319.44056712 31.04806557 -318.06695108 30.78569313 -316.69335938 30.52319336 C-313.90856217 29.99187415 -311.12329146 29.46313486 -308.33764648 28.9362793 C-304.78660333 28.26430411 -301.23783111 27.58089287 -297.68920898 26.89624023 C-226.33978282 13.2546233 -153.86397863 5.83478814 -81.34619141 2.3324585 C-78.4281135 2.18785014 -75.51081647 2.03257801 -72.59350586 1.87329102 C-48.40125865 0.5574071 -24.22701891 0.0001287 0 0 Z " fill="#000000" transform="translate(1054.376708984375,90.814697265625)"/>
</svg>
